<mxfile host="app.diagrams.net" modified="2024-07-04T15:36:17.083Z" agent="Mozilla/5.0 (Windows NT 10.0; Win64; x64) AppleWebKit/537.36 (KHTML, like Gecko) Chrome/126.0.0.0 Safari/537.36" etag="ddBVKtz7039rG6vH1yTI" version="24.6.4" type="github">
  <diagram name="Page-1" id="AY0H_fM_Bc1yTQfKUiOg">
    <mxGraphModel dx="2074" dy="746" grid="1" gridSize="10" guides="1" tooltips="1" connect="1" arrows="1" fold="1" page="1" pageScale="1" pageWidth="850" pageHeight="1100" math="0" shadow="0">
      <root>
        <mxCell id="0" />
        <mxCell id="1" parent="0" />
        <mxCell id="3vMv5bWGTtzcWaJpAm1q-2" value="PS SQL" style="shape=cylinder3;whiteSpace=wrap;html=1;boundedLbl=1;backgroundOutline=1;size=15;" vertex="1" parent="1">
          <mxGeometry x="890" y="330" width="100" height="150" as="geometry" />
        </mxCell>
        <mxCell id="3vMv5bWGTtzcWaJpAm1q-3" value="Authentication" style="whiteSpace=wrap;html=1;aspect=fixed;" vertex="1" parent="1">
          <mxGeometry x="40" y="190" width="120" height="120" as="geometry" />
        </mxCell>
      </root>
    </mxGraphModel>
  </diagram>
</mxfile>
